<svg xmlns="http://www.w3.org/2000/svg" viewBox="0 0 350 350" width="350" height="350"><path d="M253.9 200.7c0 21.4-17.2 38.8-38.4 38.8s-38.4-17.4-38.4-38.8 17.2-38.8 38.4-38.8 38.4 17.4 38.4 38.8z"/><path d="M350 64.6v154.7c0 71.9-57.7 130.1-128.8 130.1H177v-63.7c11.7 5.4 24.7 8.4 38.4 8.4 51.1 0 92.5-41.8 92.5-93.4 0-51.6-41.4-93.4-92.5-93.4s-92.5 41.8-92.5 93.4v148.7H69.4V188.3c0-45.4 10.9-77.2 33.4-97.3 19.9-17.8 49-26.4 89-26.4H350z"/><path d="M180.6 1.7C74.9 2.1.3 67.9.3 144.9v204.5h34.2V176.8c0-52.7 17.2-90.2 52.5-114.4C118.2 41 161.3 38 226.3 36.1H350V-.2L180.6 1.7z"/></svg>