<svg xmlns="http://www.w3.org/2000/svg"><symbol id="cost-effictive" viewBox="0 0 216 216"><path fill="#231f20" d="M28.5 62.1v91.8l79.5 45.9 79.5-45.9V62.1L108 16.2 28.5 62.1z"/><path fill="#fff" d="M168.2 111.3c-1-.2-58.8-56.4-58.8-56.4l-61.6 56.4h21.7v49.8h75.1v-49.8z"/><path fill="#231f20" d="M125.5 123a13.8 13.8 0 0 1-1.3 6.2 12.7 12.7 0 0 1-3.4 4.8 17.3 17.3 0 0 1-5.5 3.2 24.8 24.8 0 0 1-7 1.5l-.8 8.6-.2.6a1 1 0 0 1-.5.4l-1.1.3H102a3.3 3.3 0 0 1-1.3-.4c-.3-.1-.4-.3-.5-.6a1.1 1.1 0 0 1-.1-.8l.8-8.1-3.2-.7-2.8-.8a10.2 10.2 0 0 1-2.1-1 5.6 5.6 0 0 1-1.4-.9 3.7 3.7 0 0 1-.7-1.4 16.1 16.1 0 0 1-.2-2.6c0-1 .1-1.7.1-2.3s.2-1 .3-1.4a1 1 0 0 1 .5-.6l.7-.2a3.3 3.3 0 0 1 1.5.6l2.6 1.3a31.4 31.4 0 0 0 3.8 1.4 20.1 20.1 0 0 0 5.2.6c3.2 0 5.5-.6 7-1.8a5.4 5.4 0 0 0 2.3-4.6 5.3 5.3 0 0 0-.9-3.2 10 10 0 0 0-2.7-2.2 25.6 25.6 0 0 0-3.7-1.7l-4.2-1.6a33.6 33.6 0 0 1-4.3-2 14.1 14.1 0 0 1-3.7-2.7 12 12 0 0 1-2.6-4 14.2 14.2 0 0 1-1-5.7 13.8 13.8 0 0 1 1-5.5 10.6 10.6 0 0 1 2.9-4.3 12.3 12.3 0 0 1 4.6-3 23.2 23.2 0 0 1 6.3-1.6l.8-8.1a.8.8 0 0 1 .2-.5c0-.2.2-.3.5-.4l1-.3h1.7l2.1.2a3.5 3.5 0 0 1 1.2.3 1.7 1.7 0 0 1 .6.6 1.9 1.9 0 0 1 .1.8l-.8 7.6 2.4.4 2.3.7 2 .8a3.1 3.1 0 0 1 1.2.8 1.8 1.8 0 0 1 .5.7 1.1 1.1 0 0 1 .3.8c.1.3.1.7.2 1.2V94a12.2 12.2 0 0 1-.1 2.1 3.7 3.7 0 0 1-.2 1.2l-.3.6h-.5a4.7 4.7 0 0 1-1.6-.5 18.5 18.5 0 0 0-2.4-1.1l-3.4-1.2a18.6 18.6 0 0 0-4.2-.5 17.9 17.9 0 0 0-3.6.4 9 9 0 0 0-2.4 1.1 4.9 4.9 0 0 0-1.4 1.8 5.9 5.9 0 0 0 .6 5.4 10 10 0 0 0 2.7 2.2 25.6 25.6 0 0 0 3.7 1.7l4.4 1.6c1.4.5 2.8 1.2 4.3 1.9a17.2 17.2 0 0 1 3.7 2.8 12.3 12.3 0 0 1 2.7 3.9 15.2 15.2 0 0 1 1 5.6z"/></symbol><symbol id="easy" viewBox="0 0 216 216"><path fill="#231f20" d="M26.6 65.3v91.8l79.5 45.8 79.5-45.8V65.3l-79.5-45.9-79.5 45.9z"/><path fill="#fff" d="M79.9 137v-33.2s18.3-8.3 23.9-17.7 3.2-12.8 6.1-13.9 12.4.6 10.5 11.1-7.1 16.3-5.9 17 24.7 4.5 28.4 9c2.1 2.5 1.8 12.5-3.8 12.5 0 0 .9 10.1-6.4 10.9 0 0-.7 7.4-7.8 9.5 0 0-3 12.6-16.5 6.5s-28.5-11.3-28.5-11.3m-4.4-1.8v-31l-6.9.2-.5 30.8z"/></symbol><symbol id="next" viewBox="0 0 216 216"><path fill="#231f20" d="M186.8 97.2L85.1 21.5a13.5 13.5 0 0 0-21.5 10.8v151.4a13.5 13.5 0 0 0 21.5 10.8l101.7-75.7a13.5 13.5 0 0 0 0-21.6z"/></symbol><symbol id="plastics" viewBox="0 0 216 216"><path fill="#231f20" d="M31.9 70v91.8l79.4 45.8 79.5-45.8V70l-79.5-45.9L31.9 70z"/><rect width="81.5" height="10.97" x="63.6" y="64.9" fill="#fff" rx="1.9"/><rect width="81.5" height="10.97" x="63.6" y="155.9" fill="#fff" rx="1.9"/><rect width="63.3" height="5.76" x="72.7" y="143" fill="#fff" rx="2.4"/><rect width="63.3" height="5.76" x="73.2" y="119.4" fill="#fff" rx="2.4"/><rect width="63.3" height="5.76" x="72.7" y="131.3" fill="#fff" rx="2.4"/><rect width="63.3" height="5.76" x="73.2" y="106.7" fill="#fff" rx="2.4"/><rect width="63.3" height="5.76" x="73.2" y="83.1" fill="#fff" rx="2.4"/><path fill="#fff" d="M72.8 97.5a2.1 2.1 0 0 0 .9 2.2 6.4 6.4 0 0 0 3.3.7h51.5c5.9 0 13.4-1.7 14.6 6a60.9 60.9 0 0 1 .9 10.4c0 3.6-.8 7.1-.5 10.8a17.7 17.7 0 0 0 3.8 10.2 11.2 11.2 0 0 0 9.6 4.4 2.2 2.2 0 0 0 1.6-.5c.9-.8.6-2.4-.2-3.2a6.6 6.6 0 0 0-3.4-1.2 7.8 7.8 0 0 1-3.4-.9c-1.9-1.2-2.3-3.7-2.4-5.9-.5-9.5 1.6-18.6-1.5-27.9-.8-2.4-2.1-4.9-4.4-6.2s-4-1-6.1-1.1L78.2 95c-1.4 0-3.2 0-4.4.9a2.2 2.2 0 0 0-1 1.6z"/></symbol><symbol id="previous" viewBox="0 0 216 216"><path fill="#231f20" d="M36.6 97.2l101.7-75.7a13.4 13.4 0 0 1 21.4 10.8v151.4a13.4 13.4 0 0 1-21.4 10.8L36.6 118.8a13.5 13.5 0 0 1 0-21.6z"/></symbol><symbol id="shapes" viewBox="0 0 216 216"><path fill="#231f20" d="M28.5 62.1v91.8l79.5 45.9 79.5-45.9V62.1L108 16.2 28.5 62.1z"/><path fill="#fff" d="M133.6 119.1H146V66.9H93.8v24.4a31.3 31.3 0 0 1 20.6 13.5l5.5-9.5zM91.4 97.7a21.4 21.4 0 0 0 0 42.8l2.5-.2 17.1-29.6a21.3 21.3 0 0 0-19.6-13z"/><path fill="#fff" d="M119.9 105l-25.5 44.1h50.9L119.9 105z"/></symbol><symbol id="strength" viewBox="0 0 216 216"><path fill="#231f20" d="M26.6 64.9v91.8l79.5 45.9 79.5-45.9V64.9L106.1 19 26.6 64.9z"/><path fill="#fff" d="M100.9 55.3h34.8l-25.1 39.6 27 1.9-63 69.5 25.4-55.5H77.1l23.8-55.5z"/></symbol><symbol id="toggle" viewBox="0 0 216 216"><rect width="184.1" height="23.34" x="15.9" y="50.8" fill="#231f20" rx="8"/><rect width="184.1" height="23.34" x="15.9" y="101.9" fill="#231f20" rx="8"/><rect width="184.1" height="23.34" x="15.9" y="153" fill="#231f20" rx="8"/></symbol><symbol id="thickness" viewBox="0 0 216 216"><path fill="#231f20" d="M28.5 62.1v91.8l79.5 45.9 79.5-45.9V62.1L108 16.2 28.5 62.1z"/><path fill="#fff" d="M82.7 107.9L68.9 100v5.7H54.1v4.4h14.8v5.7l13.8-7.9zm50.6.9l13.8 7.9V111h14.8v-4.4h-14.8v-5.7l-13.8 7.9zM83.4 60.7h3.8v94.75h-3.8z"/><path fill="#fff" d="M129.6 60.7h3.8v94.75h-3.8z"/><path fill="#fff" d="M120.815 62.431l1.626-1.626 10.168 10.168-1.626 1.626zm-35.488 77.982l1.627-1.627 15.019 15.02-1.627 1.626zm-.267 10.852l1.626-1.626 4.512 4.51-1.627 1.627zm23.554-89.718l1.627-1.626 20.923 20.923-1.626 1.627zm-12.415.87l1.626-1.626 33.701 33.7-1.626 1.627zM85.246 128.04l1.627-1.627 28.044 28.044-1.627 1.626zm.094-63.463l1.626-1.626 44.35 44.35-1.627 1.626zm.192 12.768l1.626-1.626 44.35 44.35-1.627 1.626zm-.444 12.48l1.626-1.626 44.66 44.66-1.626 1.627zm-.02 12.681l1.626-1.627 44.661 44.661-1.626 1.626zm-1.078 10.492l1.627-1.626 42.78 42.78-1.627 1.626z"/></symbol><symbol id="versatile" viewBox="0 0 216 216"><path fill="#231f20" d="M28.5 62.1v91.8l79.5 45.9 79.5-45.9V62.1L108 16.2 28.5 62.1z"/><path fill="#fff" d="M80.7 62.8c1.5-2.3 3.7-4.5 5.3-6.5l6.5-8.4 16.5 16h-9.6c-.7 14.7 4.9 29.3 13.4 41.4 5.1 7.2 11.3 13.6 16 21.1s7.7 16.6 5.6 25.2h9.8l-12.7 16.5c-5.1-5.3-10.3-11.1-15.5-16.4 2.5-.2 6.2-.1 8.7-.2 2.1-6.1-.6-12.7-3.6-18.4s-7.4-10.6-11.3-15.7a122.6 122.6 0 0 1-15-25.1c-4-8.8-7.1-18.4-5.7-27.9 0 0-8.5.2-9.3.1z"/><path fill="#fff" d="M143.3 62.8c-1.4-2.3-3.7-4.5-5.2-6.5l-6.5-8.4-16.5 16h9.5c.8 14.7-4.8 29.3-13.3 41.4-5.2 7.2-11.3 13.6-16 21.1s-7.7 16.6-5.7 25.2h-9.8l12.7 16.5c5.2-5.3 10.4-11.1 15.6-16.4-2.5-.2-6.2-.1-8.7-.2-2.1-6.1.6-12.7 3.6-18.4s7.4-10.6 11.3-15.7a132.3 132.3 0 0 0 15-25.1c4-8.8 7.1-18.4 5.7-27.9 0 0 8.5.2 9.2.1a7 7 0 0 0-.9-1.7z"/><path fill="#fff" d="M153 137.6c2.3-1.4 4.5-3.6 6.6-5.2l8.4-6.4-15.9-16.6v9.5c-14.7.7-29.3-5-41.3-13.6-7.1-5.2-13.5-11.4-21-16.1s-16.5-7.8-25.1-5.8v-9.8L48 86.1c5.3 5.2 11.1 10.5 16.4 15.7.1-2.5.1-6.2.2-8.7 6.1-2.1 12.7.7 18.3 3.7s10.6 7.5 15.7 11.4a127.4 127.4 0 0 0 25 15.2c8.7 4 18.3 7.2 27.9 5.8-.1 0-.3 8.6-.2 9.3a7 7 0 0 0 1.7-.9z"/><path fill="#fff" d="M63 137.6c-2.3-1.4-4.5-3.6-6.6-5.2L48 126l15.9-16.6v9.5c14.7.7 29.3-5 41.3-13.6 7.1-5.2 13.5-11.4 21-16.1s16.5-7.8 25.1-5.8v-9.8L168 86.1c-5.3 5.2-11.1 10.5-16.4 15.7-.1-2.5-.1-6.2-.2-8.7-6.1-2.1-12.7.7-18.3 3.7s-10.6 7.5-15.7 11.4a127.4 127.4 0 0 1-25 15.2c-8.7 4-18.3 7.2-27.9 5.8.1 0 .3 8.6.2 9.3a7 7 0 0 1-1.7-.9z"/></symbol><symbol id="x" viewBox="0 0 216 216"><rect width="32.5" height="228.92" x="91.7" y="-6.5" fill="#231f20" rx="9.6" transform="rotate(-40.6 107.881 107.98)"/><rect width="32.5" height="228.92" x="91.7" y="-6.5" fill="#231f20" rx="9.6" transform="rotate(42 107.963 108.004)"/></symbol></svg>