<svg xmlns="http://www.w3.org/2000/svg"><symbol id="next" viewBox="0 0 216 216"><path d="M186.8 97.2L85.1 21.5c-6-4.4-14.5-3.1-18.9 2.9-1.7 2.3-2.6 5.1-2.6 7.9v151.4c0 7.5 6.1 13.5 13.6 13.4 2.9 0 5.6-.9 7.9-2.6l101.7-75.7c6.1-4.2 7.9-12.3 3.7-18.5-1-1.3-2.1-2.5-3.7-3.1z"/></symbol><symbol id="plastics" viewBox="0 0 216 216"><path d="M107.9 16.2l-79.3 46V154l79.4 45.8 79.5-45.8V62.2l-79.6-46zM64.5 58c0-1 .9-1.9 1.9-1.9h77.7c1 0 1.9.9 1.9 1.9v7.2c0 1-.8 1.9-1.9 1.9H66.4c-1 0-1.9-.9-1.9-1.9V58zm72.9 18.7v1c0 1.3-1.1 2.4-2.4 2.4H76.5c-1.3 0-2.4-1.1-2.4-2.4v-1c0-1.3 1.1-2.4 2.4-2.4H135c1.3 0 2.4 1 2.4 2.4zm-60.9 33.9H135c1.3 0 2.4 1.1 2.4 2.4v1c0 1.3-1.1 2.4-2.4 2.4H76.5c-1.3 0-2.4-1.1-2.4-2.4v-1c0-1.4 1.1-2.4 2.4-2.4zm-2.4-9.4v-1c0-1.3 1.1-2.4 2.4-2.4H135c1.3 0 2.4 1.1 2.4 2.4v1c0 1.3-1.1 2.4-2.4 2.4H76.5c-1.3 0-2.4-1-2.4-2.4zm1.9 21.3h58.5c1.3 0 2.4 1.1 2.4 2.4v1c0 1.3-1.1 2.4-2.4 2.4H76c-1.3 0-2.4-1.1-2.4-2.4v-1c0-1.4 1.1-2.4 2.4-2.4zm60.9 14.1v1c0 1.3-1.1 2.4-2.4 2.4H76c-1.3 0-2.4-1.1-2.4-2.4v-1c0-1.3 1.1-2.4 2.4-2.4h58.5c1.3 0 2.4 1 2.4 2.4zm9.1 19.5c0 1-.8 1.9-1.9 1.9H66.4c-1 0-1.9-.9-1.9-1.9V149c0-1 .9-1.9 1.9-1.9h77.7c1 0 1.9.9 1.9 1.9v7.1zm13.4-23.2c-.4.4-1 .6-1.6.5-3.7.2-7.3-1.4-9.6-4.4-2.3-2.9-3.6-6.5-3.8-10.2-.3-3.7.5-7.2.5-10.8 0-3.5-.3-7-.9-10.4-1.2-7.7-8.7-6-14.6-6H77.9c-1.1.1-2.3-.2-3.3-.7-.7-.5-1.1-1.3-.9-2.2.1-.7.5-1.2 1-1.6 1.2-.9 3-.9 4.4-.9l58.9.3c2.1.1 3.8-.2 6.1 1.1s3.6 3.8 4.4 6.2c3.1 9.3 1 18.4 1.5 27.9.1 2.2.5 4.7 2.4 5.9 1 .5 2.2.9 3.4.9 1.2.1 2.4.5 3.4 1.2.8.8 1.1 2.4.2 3.2z"/></symbol><symbol id="cost-effective" viewBox="0 0 216 216"><path d="M108 16.2L28.5 62.1v91.8l79.5 45.9 79.5-45.9V62.1L108 16.2zm36.6 88.5v49.8H69.5v-49.8H47.8l61.6-56.4s57.8 56.2 58.8 56.4h-23.6z"/><path d="M125.5 121.3c0 2.1-.4 4.3-1.3 6.2-.7 1.8-1.9 3.5-3.4 4.8-1.6 1.4-3.5 2.5-5.5 3.2-2.2.8-4.6 1.3-7 1.5l-.8 8.6-.2.6c-.1.2-.3.3-.5.4l-1.1.3H102c-.5 0-.9-.2-1.3-.4-.3-.1-.4-.3-.5-.6-.1-.2-.2-.5-.1-.8l.8-8.1-3.2-.7-2.8-.8c-.7-.2-1.4-.6-2.1-1-.5-.2-1-.5-1.4-.9-.3-.4-.6-.9-.7-1.4-.1-.9-.2-1.7-.2-2.6 0-1 .1-1.7.1-2.3 0-.6.2-1 .3-1.4.1-.3.3-.5.5-.6l.7-.2c.5.1 1.1.3 1.5.6l2.6 1.3c1.2.5 2.5 1 3.8 1.4 1.7.4 3.5.6 5.2.6 3.2 0 5.5-.6 7-1.8 1.5-1 2.4-2.8 2.3-4.6 0-1.1-.3-2.3-.9-3.2-.8-.9-1.7-1.6-2.7-2.2-1.2-.7-2.4-1.2-3.7-1.7l-4.2-1.6c-1.5-.6-2.9-1.2-4.3-2-1.4-.7-2.6-1.6-3.7-2.7s-2-2.5-2.6-4c-.7-1.8-1.1-3.8-1-5.7-.1-1.9.3-3.8 1-5.5.6-1.7 1.6-3.1 2.9-4.3 1.3-1.3 2.9-2.4 4.6-3 2-.8 4.1-1.4 6.3-1.6l.8-8.1c0-.2.1-.4.2-.5 0-.2.2-.3.5-.4l1-.3h1.7l2.1.2c.4 0 .8.1 1.2.3.2.1.5.3.6.6.1.3.1.5.1.8l-.8 7.6 2.4.4 2.3.7 2 .8c.5.2.9.4 1.2.8.2.2.4.4.5.7.2.2.3.5.3.8.1.3.1.7.2 1.2v1.6c0 .7 0 1.4-.1 2.1 0 .4-.1.8-.2 1.2l-.3.6h-.5c-.6-.1-1.1-.2-1.6-.5-.8-.4-1.6-.8-2.4-1.1l-3.4-1.2c-1.4-.3-2.8-.5-4.2-.5-1.2 0-2.4.2-3.6.4-.9.2-1.7.6-2.4 1.1-.6.5-1.1 1.1-1.4 1.8-.7 1.8-.5 3.8.6 5.4.8.9 1.7 1.6 2.7 2.2 1.2.7 2.4 1.2 3.7 1.7l4.4 1.6c1.4.5 2.8 1.2 4.3 1.9 1.4.8 2.6 1.7 3.7 2.8 1.1 1.1 2.1 2.4 2.7 3.9.7 1.8 1 3.7 1 5.6z"/></symbol><symbol id="easy" viewBox="0 0 216 216"><path d="M106.1 19.4L26.6 65.3v91.8l79.5 45.8 79.5-45.8V65.3l-79.5-45.9zM75.5 135.6h-7.4l.5-30.8 6.9-.2v31zm63.6-13.8s.9 10.1-6.4 10.9c0 0-.7 7.4-7.8 9.5 0 0-3 12.6-16.5 6.5s-28.5-11.3-28.5-11.3v-33.6s18.3-8.3 23.9-17.7c5.6-9.4 3.2-12.8 6.1-13.9 2.9-1.1 12.4.6 10.5 11.1-1.9 10.5-7.1 16.3-5.9 17s24.7 4.5 28.4 9c2.1 2.5 1.8 12.5-3.8 12.5z"/></symbol><symbol id="thickness" viewBox="0 0 216 216"><path d="M111.8 19.9L32.3 65.8v91.8l79.5 45.9 79.5-45.9V65.8l-79.5-45.9zm-44 101.6v-7.2H49v-5.6h18.8v-7.2l17.5 10-17.5 10zm68.9 37.6h-3.8v-8.4l-42.4-42.4v8.3l41.2 41.2-1.6 1.6-39.6-39.6v10.5l27.7 27.7-1.6 1.6-26.1-26.1v9l14.8 14.8-1.6 1.6L90.5 146v7.9l4 4-1.6 1.6-2.4-2.4v2h-3.8V64.4h3.8v2.5l42.4 42.4v-9.8L99.5 66.1l1.6-1.6 31.8 31.8V86.1l-.1.1-20.9-20.9 1.6-1.6L132.9 83v-8.1l-8.8-8.8 1.6-1.6 7.2 7.2v-7.3h3.8v94.7zm37.8-43.7h-18.8v7.2l-17.5-10 17.5-10v7.2h18.8v5.6z"/><path d="M132.9 112.5v9.3L90.5 79.4v-9.3zm0 12.6v9.7L90.5 92.4v-9.7zm0 12.9v9.5l-42.4-42.4v-9.5z"/></symbol><symbol id="previous" viewBox="0 0 216 216"><path d="M36.6 97.2l101.7-75.7c5.9-4.4 14.3-3.2 18.7 2.7 1.7 2.3 2.7 5.2 2.7 8.1v151.4c0 7.4-5.9 13.4-13.3 13.5-2.9 0-5.7-.9-8.1-2.7L36.6 118.8c-6-4.5-7.2-12.9-2.7-18.9.8-1 1.7-1.9 2.7-2.7z"/></symbol><symbol id="x" viewBox="0 0 216 216"><path d="M188.5 177c3.5 4 3 10.1-1 13.5l-10.1 8.7c-4 3.4-10.1 3-13.5-1l-56.2-65.5-57.8 64.2c-3.5 3.9-9.6 4.3-13.5.7l-9.9-8.9c-3.9-3.5-4.3-9.6-.7-13.5l60.6-67.3-59-68.8c-3.5-4-3-10.1 1-13.5l10.1-8.7c4-3.5 10.1-3 13.5 1l56.2 65.6L166 19.3c3.5-3.9 9.6-4.3 13.6-.7l9.9 8.9c3.9 3.6 4.3 9.6.7 13.6l-60.6 67.3 58.9 68.6z"/></symbol><symbol id="shapes" viewBox="0 0 216 216"><path d="M108 16.2L28.5 62.1v91.8l79.5 45.9 79.5-45.9V62.1L108 16.2zM87.6 143.1c-13.1 0-23.8-10.6-23.8-23.8 0-13.1 10.7-23.8 23.8-23.8 9.5 0 18.1 5.7 21.8 14.4l-19 32.9-2.8.3zm3.3 9.6l28.3-49 28.2 49H90.9zm57.3-33.4h-13.8l-15.2-26.4-6.1 10.6c-5.3-7.9-13.5-13.3-22.9-15V61.3h58v58z"/></symbol><symbol id="strength" viewBox="0 0 216 216"><path d="M106.1 11.8L26.6 57.7v91.8l79.5 45.9 79.5-45.9V57.7l-79.5-45.9zM74.6 159.1l25.4-55.5H77.1l23.8-55.5h34.8l-25.1 39.6 27 1.9-63 69.5z"/></symbol><symbol id="versatile" viewBox="0 0 216 216"><path d="M108 16.2L28.5 62.1v91.8l79.5 45.9 79.5-45.9V62.1L108 16.2zm44.1 104.7v-9.5L168 128l-8.4 6.4c-2.1 1.6-4.3 3.8-6.6 5.2-.5.4-1.1.7-1.7.9-.1-.7.1-9.3.2-9.3-9.3 1.4-18.7-1.6-27.2-5.5.1.2.3.5.5.7 4.7 7.5 7.7 16.6 5.6 25.2h9.8l-12.7 16.5c-5.1-5.3-10.3-11.1-15.5-16.4 2.5-.2 6.2-.1 8.7-.2 2.1-6.1-.6-12.7-3.6-18.4-2.4-4.6-5.8-8.7-9-12.8-3.3 4.1-6.6 8.2-9 12.8-3 5.7-5.7 12.3-3.6 18.4 2.5.1 6.2 0 8.7.2-5.2 5.3-10.4 11.1-15.6 16.4l-12.7-16.5h9.8c-2-8.6 1-17.7 5.7-25.2.2-.3.3-.5.5-.8-8.5 3.9-17.9 6.9-27.3 5.5.1 0 .3 8.6.2 9.3-.6-.2-1.2-.5-1.7-.9-2.3-1.4-4.5-3.6-6.6-5.2L48 128l15.9-16.6v9.5c12.5.6 24.9-3.4 35.7-9.9-.3-.3-.7-.5-1-.8-5.1-3.9-10.1-8.4-15.7-11.4S70.7 93 64.6 95.1c-.1 2.5-.1 6.2-.2 8.7-5.3-5.2-11.1-10.6-16.4-15.7l16.7-12.5v9.8c8.6-2 17.6 1.1 25.1 5.8.2.1.5.3.7.4-3.8-8.6-6.7-17.9-5.4-27.2 0 0-8.5.2-9.3.1l.9-1.7c1.5-2.3 3.7-4.5 5.3-6.5l6.5-8.4 16.5 16h-9.6c-.7 14.3 4.6 28.4 12.6 40.3 8.1-11.9 13.3-26.1 12.5-40.3H111l16.5-16 6.5 8.4c1.5 2 3.8 4.2 5.2 6.5.4.5.7 1.1.9 1.7-.7.1-9.2-.1-9.2-.1 1.4 9.2-1.5 18.5-5.3 27.1.2-.1.4-.2.5-.4 7.5-4.7 16.5-7.8 25.1-5.8v-9.8L168 88.1c-5.3 5.2-11.1 10.5-16.4 15.7-.1-2.5-.1-6.2-.2-8.7-6.1-2.1-12.7.7-18.3 3.7-5.6 3-10.6 7.5-15.7 11.4-.3.3-.7.5-1 .8 10.8 6.4 23.2 10.4 35.7 9.9z"/></symbol></svg>